<svg width="1440" height="1024" viewBox="0 0 1440 1024" fill="none" xmlns="http://www.w3.org/2000/svg">
<g clip-path="url(#clip0_66_19)">
<rect width="1440" height="1024" fill="url(#paint0_linear_66_19)"/>
<path d="M1177.65 820.821C1232.05 747.621 1020.98 764.654 908.645 782.321C842.145 791.101 932.645 957.821 975.145 911.321C1017.65 864.821 1109.65 912.321 1177.65 820.821Z" fill="#D9D9D9" fill-opacity="0.4"/>
<path d="M1331.53 252.45C1361.43 338.607 1466.1 154.531 1514.7 51.7237C1544.85 -8.19306 1356.11 -27.1748 1370.64 34.1224C1385.17 95.4196 1294.14 144.753 1331.53 252.45Z" fill="#D9D9D9" fill-opacity="0.4"/>
<path d="M1295.27 415.714C1162.27 499.214 1417.77 600.714 1428.27 605.714C1497.27 638.802 1501.27 492.714 1448.27 467.714C1395.27 442.714 1428.27 332.214 1295.27 415.714Z" fill="#D9D9D9" fill-opacity="0.4"/>
<path d="M1059 548.575C1035.25 393.343 840.552 587.441 831.79 595.088C774 645.249 906.46 706.992 950.468 668.297C994.476 629.602 1082.75 703.808 1059 548.575Z" fill="#D9D9D9" fill-opacity="0.4"/>
<path d="M1108.28 85.4106C951.243 84.1954 1111.94 307.262 1118.1 317.127C1158.44 382.153 1240.44 261.185 1209.23 211.588C1178.02 161.991 1265.31 86.6259 1108.28 85.4106Z" fill="#D9D9D9" fill-opacity="0.4"/>
<path d="M1361.69 925.256C1518.72 927.063 1358.87 703.392 1352.74 693.504C1312.65 628.327 1230.19 748.984 1261.21 798.698C1292.24 848.413 1204.66 923.448 1361.69 925.256Z" fill="#D9D9D9" fill-opacity="0.4"/>
<path d="M873.001 326C955.654 326 1022.66 393.157 1022.66 476C1022.66 476 955.653 476 873 476C873 393.157 873.001 326 873.001 326Z" fill="url(#paint1_linear_66_19)"/>
<path d="M1023.34 626C940.687 626 873.684 558.843 873.684 476C873.684 476 940.688 476 1023.34 476C1023.34 558.843 1023.34 626 1023.34 626Z" fill="url(#paint2_linear_66_19)"/>
<path d="M1173 476.001C1173 558.843 1106 626 1023.34 626C1023.34 626 1023.34 558.842 1023.34 476C1106 476 1173 476.001 1173 476.001Z" fill="url(#paint3_linear_66_19)"/>
<path d="M1110.96 476C1110.96 558.842 1022.66 446 1022.66 594.499C1022.66 594.499 961.298 558.841 961.298 475.999C1043.95 475.999 1110.96 476 1110.96 476Z" fill="url(#paint4_linear_66_19)"/>
<path d="M1022.66 475.999C1022.66 393.157 1089.66 326 1172.32 326C1172.32 326 1172.32 393.158 1172.32 476C1089.66 476 1022.66 475.999 1022.66 475.999Z" fill="url(#paint5_linear_66_19)"/>
<path d="M817.141 692.304C814.837 692.304 812.949 691.936 811.477 691.2C810.005 690.464 808.917 689.349 808.213 687.856C807.509 686.352 807.157 684.464 807.157 682.192V668.32H812.341V682.704C812.341 684.581 812.741 685.941 813.541 686.784C814.341 687.627 815.541 688.048 817.141 688.048C818.741 688.048 819.936 687.627 820.725 686.784C821.525 685.941 821.925 684.581 821.925 682.704V668.32H827.013V682.192C827.013 684.464 826.666 686.352 825.973 687.856C825.28 689.349 824.202 690.464 822.741 691.2C821.28 691.936 819.413 692.304 817.141 692.304ZM831.159 692V668.32H836.375L847.591 685.552H846.695V668.32H851.591V692H846.359L835.159 674.768H836.055V692H831.159ZM855.847 692V668.32H861.047V692H855.847ZM870.804 692L863.204 668.32H868.644L875.332 689.872H874.212L881.012 668.32H886.068L878.484 692H870.804ZM888.222 692V668.32H904.846V672.48H893.358V687.84H905.006V692H888.222ZM891.31 681.968V677.808H903.214V681.968H891.31ZM908.284 692V668.848C908.999 668.688 909.762 668.549 910.572 668.432C911.383 668.304 912.22 668.208 913.084 668.144C913.948 668.069 914.818 668.032 915.692 668.032C919.095 668.032 921.655 668.651 923.372 669.888C925.09 671.115 925.948 673.035 925.948 675.648C925.948 677.333 925.543 678.747 924.732 679.888C923.922 681.019 922.764 681.872 921.26 682.448C919.767 683.024 917.98 683.312 915.9 683.312C915.431 683.312 914.999 683.307 914.604 683.296C914.21 683.275 913.804 683.253 913.388 683.232V692H908.284ZM922.22 692L914.604 681.056H920.172L927.9 692H922.22ZM915.996 679.44C917.714 679.44 918.988 679.141 919.82 678.544C920.652 677.947 921.068 676.981 921.068 675.648C921.068 674.773 920.892 674.059 920.54 673.504C920.188 672.939 919.655 672.523 918.94 672.256C918.226 671.989 917.319 671.856 916.22 671.856C915.676 671.856 915.175 671.877 914.716 671.92C914.258 671.963 913.815 672.027 913.388 672.112V679.312C913.698 679.333 913.986 679.36 914.252 679.392C914.53 679.413 914.807 679.429 915.084 679.44C915.372 679.44 915.676 679.44 915.996 679.44ZM935.829 692.304C934.688 692.304 933.541 692.213 932.389 692.032C931.248 691.861 930.192 691.616 929.221 691.296V687.072C929.893 687.296 930.608 687.488 931.365 687.648C932.123 687.797 932.88 687.915 933.637 688C934.405 688.085 935.131 688.128 935.813 688.128C937.403 688.128 938.528 687.888 939.189 687.408C939.851 686.917 940.181 686.235 940.181 685.36C940.181 684.624 939.936 684.048 939.445 683.632C938.965 683.216 938.064 682.837 936.741 682.496L934.949 682.032C932.88 681.509 931.312 680.699 930.245 679.6C929.189 678.491 928.661 677.029 928.661 675.216C928.661 672.955 929.477 671.189 931.109 669.92C932.752 668.651 935.221 668.016 938.517 668.016C939.584 668.016 940.597 668.08 941.557 668.208C942.528 668.325 943.387 668.491 944.133 668.704V672.928C943.376 672.693 942.533 672.512 941.605 672.384C940.677 672.256 939.744 672.192 938.805 672.192C937.568 672.192 936.587 672.309 935.861 672.544C935.136 672.768 934.613 673.088 934.293 673.504C933.984 673.92 933.829 674.4 933.829 674.944C933.829 675.637 934.043 676.181 934.469 676.576C934.896 676.971 935.696 677.328 936.869 677.648L938.645 678.112C940.181 678.485 941.445 678.981 942.437 679.6C943.429 680.208 944.16 680.96 944.629 681.856C945.109 682.741 945.349 683.792 945.349 685.008C945.349 686.523 944.971 687.829 944.213 688.928C943.467 690.016 942.384 690.853 940.965 691.44C939.547 692.016 937.835 692.304 935.829 692.304ZM948.347 692V668.32H953.547V692H948.347ZM963.368 692V672.64H955.896V668.32H976.04V672.64H968.584V692H963.368ZM983.681 692V679.872L984.737 683.696L975.137 668.32H980.657L987.137 678.784H985.665L992.065 668.32H997.185L987.825 683.696L988.881 679.952V692H983.681ZM1017.09 692.304C1014.84 692.304 1012.88 691.867 1011.2 690.992C1009.54 690.117 1008.24 688.784 1007.31 686.992C1006.4 685.189 1005.94 682.912 1005.94 680.16C1005.94 677.408 1006.4 675.136 1007.31 673.344C1008.24 671.541 1009.54 670.203 1011.2 669.328C1012.88 668.453 1014.84 668.016 1017.09 668.016C1019.34 668.016 1021.3 668.459 1022.96 669.344C1024.64 670.219 1025.93 671.557 1026.85 673.36C1027.78 675.152 1028.24 677.419 1028.24 680.16C1028.24 682.901 1027.78 685.173 1026.85 686.976C1025.93 688.768 1024.64 690.107 1022.96 690.992C1021.29 691.867 1019.33 692.304 1017.09 692.304ZM1017.09 688.112C1018.31 688.112 1019.35 687.851 1020.21 687.328C1021.08 686.795 1021.75 685.952 1022.21 684.8C1022.68 683.648 1022.91 682.139 1022.91 680.272C1022.91 678.331 1022.68 676.773 1022.21 675.6C1021.74 674.416 1021.07 673.557 1020.19 673.024C1019.33 672.48 1018.3 672.208 1017.09 672.208C1015.88 672.208 1014.84 672.469 1013.97 672.992C1013.11 673.515 1012.44 674.352 1011.97 675.504C1011.5 676.656 1011.27 678.171 1011.27 680.048C1011.27 682 1011.5 683.568 1011.95 684.752C1012.42 685.925 1013.09 686.779 1013.95 687.312C1014.83 687.845 1015.87 688.112 1017.09 688.112ZM1031.72 692V668.32H1048.3V672.56H1036.92V692H1031.72ZM1035.03 682.56V678.32H1046.67V682.56H1035.03ZM1059.19 692V668.752C1060.3 668.528 1061.44 668.352 1062.61 668.224C1063.8 668.096 1065.05 668.032 1066.36 668.032C1069.88 668.032 1072.52 668.72 1074.29 670.096C1076.08 671.461 1076.97 673.627 1076.97 676.592C1076.97 679.387 1076.1 681.509 1074.37 682.96C1072.66 684.411 1070.09 685.136 1066.68 685.136C1066.27 685.136 1065.89 685.131 1065.53 685.12C1065.16 685.099 1064.79 685.072 1064.39 685.04V692H1059.19ZM1066.74 681.232C1068.52 681.232 1069.83 680.875 1070.66 680.16C1071.49 679.435 1071.91 678.256 1071.91 676.624C1071.91 674.981 1071.49 673.792 1070.66 673.056C1069.84 672.309 1068.57 671.936 1066.84 671.936C1066.36 671.936 1065.93 671.952 1065.54 671.984C1065.16 672.005 1064.77 672.053 1064.39 672.128V681.088C1064.79 681.131 1065.16 681.168 1065.53 681.2C1065.89 681.221 1066.29 681.232 1066.74 681.232ZM1080.25 692V668.32H1096.88V672.48H1085.39V687.84H1097.04V692H1080.25ZM1083.34 681.968V677.808H1095.25V681.968H1083.34ZM1111.4 692.304C1109.44 692.304 1107.69 692.075 1106.17 691.616C1104.64 691.147 1103.35 690.427 1102.28 689.456C1101.22 688.475 1100.42 687.221 1099.88 685.696C1099.33 684.171 1099.06 682.341 1099.06 680.208C1099.06 677.499 1099.55 675.243 1100.53 673.44C1101.52 671.627 1102.95 670.272 1104.82 669.376C1106.7 668.469 1108.98 668.016 1111.65 668.016C1112.56 668.016 1113.44 668.064 1114.28 668.16C1115.12 668.245 1115.94 668.384 1116.74 668.576V672.864C1116 672.683 1115.23 672.544 1114.45 672.448C1113.69 672.352 1112.89 672.304 1112.07 672.304C1110.36 672.304 1108.95 672.571 1107.83 673.104C1106.72 673.627 1105.89 674.464 1105.33 675.616C1104.78 676.768 1104.5 678.277 1104.5 680.144C1104.5 682.075 1104.77 683.616 1105.32 684.768C1105.87 685.909 1106.69 686.736 1107.78 687.248C1108.88 687.76 1110.25 688.016 1111.89 688.016C1112.71 688.016 1113.51 687.952 1114.31 687.824C1115.11 687.685 1115.92 687.499 1116.74 687.264V691.536C1115.99 691.771 1115.14 691.957 1114.21 692.096C1113.3 692.235 1112.36 692.304 1111.4 692.304ZM1119.63 692V668.32H1136.25V672.48H1124.76V687.84H1136.41V692H1119.63ZM1122.72 681.968V677.808H1134.62V681.968H1122.72ZM1139.69 692V668.32H1144.89V687.68H1155.77V692H1139.69ZM1166.13 692V668.32H1171.33V687.68H1182.21V692H1166.13ZM1184.5 692V668.32H1201.13V672.48H1189.64V687.84H1201.29V692H1184.5ZM1187.59 681.968V677.808H1199.5V681.968H1187.59ZM1204.57 692V668.32H1209.77V687.68H1220.65V692H1204.57ZM1222.94 692V668.32H1239.56V672.48H1228.08V687.84H1239.72V692H1222.94ZM1226.03 681.968V677.808H1237.93V681.968H1226.03Z" fill="white"/>
</g>
<defs>
<linearGradient id="paint0_linear_66_19" x1="313" y1="239" x2="1102" y2="912.5" gradientUnits="userSpaceOnUse">
<stop stop-color="#1C4779"/>
<stop offset="1" stop-color="#355B88"/>
</linearGradient>
<linearGradient id="paint1_linear_66_19" x1="947.829" y1="345.5" x2="1022.97" y2="594.405" gradientUnits="userSpaceOnUse">
<stop stop-color="#A103CB"/>
<stop offset="1" stop-color="#F848BB"/>
</linearGradient>
<linearGradient id="paint2_linear_66_19" x1="948.513" y1="606.5" x2="873.37" y2="357.595" gradientUnits="userSpaceOnUse">
<stop stop-color="#A103CB"/>
<stop offset="1" stop-color="#F848BB"/>
</linearGradient>
<linearGradient id="paint3_linear_66_19" x1="1153.54" y1="551" x2="905.018" y2="625.687" gradientUnits="userSpaceOnUse">
<stop stop-color="#A103CB"/>
<stop offset="1" stop-color="#F848BB"/>
</linearGradient>
<linearGradient id="paint4_linear_66_19" x1="1025.65" y1="345.5" x2="1022.64" y2="593" gradientUnits="userSpaceOnUse">
<stop stop-color="#A103CB"/>
<stop offset="1" stop-color="#FB4BBB"/>
</linearGradient>
<linearGradient id="paint5_linear_66_19" x1="1104.97" y1="348.5" x2="1022.32" y2="591.385" gradientUnits="userSpaceOnUse">
<stop stop-color="#A103CB"/>
<stop offset="1" stop-color="#FC4BBB"/>
</linearGradient>
<clipPath id="clip0_66_19">
<rect width="1440" height="1024" fill="white"/>
</clipPath>
</defs>
</svg>
