<svg width="396" height="253" viewBox="0 0 396 253" fill="none" xmlns="http://www.w3.org/2000/svg">
<g filter="url(#filter0_d_55_100)">
<g clip-path="url(#clip0_55_100)">
<rect x="4" width="388" height="245" rx="10" fill="url(#paint0_linear_55_100)"/>
<g filter="url(#filter1_d_55_100)">
<path d="M19 15L32.8889 28.8889L46.7778 42.7778L74.5556 15V42.7778V42.7778C74.5556 58.119 62.119 70.5556 46.7778 70.5556V70.5556C31.4365 70.5556 19 58.119 19 42.7778V15Z" fill="#82025E"/>
</g>
<path d="M19.0002 15C34.3413 15 46.7778 27.4365 46.7778 42.7777C46.7778 42.7777 34.3412 42.7778 19 42.7778C19 27.4365 19.0002 15 19.0002 15Z" fill="url(#paint1_linear_55_100)"/>
<path d="M63.1667 42.7778C63.1667 58.119 46.7778 37.2223 46.7778 64.7221C46.7778 64.7221 35.3889 58.1188 35.3889 42.7776C50.7301 42.7776 63.1667 42.7778 63.1667 42.7778Z" fill="url(#paint2_linear_55_100)"/>
<path d="M46.7779 42.7776C46.7779 27.4365 59.2144 15 74.5556 15C74.5556 15 74.5557 27.4366 74.5557 42.7778C59.2144 42.7778 46.7779 42.7776 46.7779 42.7776Z" fill="url(#paint3_linear_55_100)"/>
<g filter="url(#filter2_d_55_100)">
<path d="M114.37 28.1235C113.434 28.1235 112.667 27.974 112.069 27.675C111.471 27.376 111.029 26.9232 110.743 26.3165C110.457 25.7055 110.314 24.9385 110.314 24.0155V18.38H112.42V24.2235C112.42 24.9862 112.582 25.5387 112.907 25.881C113.232 26.2233 113.72 26.3945 114.37 26.3945C115.02 26.3945 115.505 26.2233 115.826 25.881C116.151 25.5387 116.313 24.9862 116.313 24.2235V18.38H118.38V24.0155C118.38 24.9385 118.239 25.7055 117.958 26.3165C117.676 26.9232 117.238 27.376 116.645 27.675C116.051 27.974 115.293 28.1235 114.37 28.1235ZM120.065 28V18.38H122.184L126.74 25.3805H126.376V18.38H128.365V28H126.24L121.69 20.9995H122.054V28H120.065ZM130.094 28V18.38H132.206V28H130.094ZM136.17 28L133.083 18.38H135.293L138.01 27.1355H137.555L140.317 18.38H142.371L139.29 28H136.17ZM143.246 28V18.38H150V20.07H145.333V26.31H150.065V28H143.246ZM144.501 23.9245V22.2345H149.337V23.9245H144.501ZM151.397 28V18.5945C151.687 18.5295 151.997 18.4732 152.326 18.4255C152.656 18.3735 152.996 18.3345 153.347 18.3085C153.698 18.2782 154.051 18.263 154.406 18.263C155.789 18.263 156.829 18.5143 157.526 19.017C158.224 19.5153 158.573 20.2953 158.573 21.357C158.573 22.0417 158.408 22.6158 158.079 23.0795C157.749 23.5388 157.279 23.8855 156.668 24.1195C156.062 24.3535 155.336 24.4705 154.491 24.4705C154.3 24.4705 154.125 24.4683 153.964 24.464C153.804 24.4553 153.639 24.4467 153.47 24.438V28H151.397ZM157.058 28L153.964 23.554H156.226L159.366 28H157.058ZM154.53 22.8975C155.227 22.8975 155.745 22.7762 156.083 22.5335C156.421 22.2908 156.59 21.8987 156.59 21.357C156.59 21.0017 156.519 20.7113 156.376 20.486C156.233 20.2563 156.016 20.0873 155.726 19.979C155.435 19.8707 155.067 19.8165 154.621 19.8165C154.4 19.8165 154.196 19.8252 154.01 19.8425C153.823 19.8598 153.644 19.8858 153.47 19.9205V22.8455C153.596 22.8542 153.713 22.865 153.821 22.878C153.934 22.8867 154.047 22.8932 154.159 22.8975C154.276 22.8975 154.4 22.8975 154.53 22.8975ZM162.587 28.1235C162.123 28.1235 161.657 28.0867 161.189 28.013C160.726 27.9437 160.297 27.844 159.902 27.714V25.998C160.175 26.089 160.466 26.167 160.773 26.232C161.081 26.2927 161.389 26.3403 161.696 26.375C162.008 26.4097 162.303 26.427 162.58 26.427C163.226 26.427 163.683 26.3295 163.952 26.1345C164.221 25.9352 164.355 25.6578 164.355 25.3025C164.355 25.0035 164.255 24.7695 164.056 24.6005C163.861 24.4315 163.495 24.2777 162.957 24.139L162.229 23.9505C161.389 23.7382 160.752 23.4088 160.318 22.9625C159.889 22.5118 159.675 21.9182 159.675 21.1815C159.675 20.2628 160.006 19.5457 160.669 19.03C161.337 18.5143 162.34 18.2565 163.679 18.2565C164.112 18.2565 164.524 18.2825 164.914 18.3345C165.308 18.3822 165.657 18.4493 165.96 18.536V20.252C165.653 20.1567 165.31 20.083 164.933 20.031C164.556 19.979 164.177 19.953 163.796 19.953C163.293 19.953 162.895 20.0007 162.6 20.096C162.305 20.187 162.093 20.317 161.963 20.486C161.837 20.655 161.774 20.85 161.774 21.071C161.774 21.3527 161.861 21.5737 162.034 21.734C162.208 21.8943 162.533 22.0395 163.009 22.1695L163.731 22.358C164.355 22.5097 164.868 22.7112 165.271 22.9625C165.674 23.2095 165.971 23.515 166.162 23.879C166.357 24.2387 166.454 24.6655 166.454 25.1595C166.454 25.7748 166.301 26.3057 165.993 26.752C165.69 27.194 165.25 27.5342 164.673 27.7725C164.097 28.0065 163.402 28.1235 162.587 28.1235ZM167.672 28V18.38H169.785V28H167.672ZM173.774 28V20.135H170.739V18.38H178.922V20.135H175.893V28H173.774ZM182.027 28V23.073L182.456 24.6265L178.556 18.38H180.798L183.431 22.631H182.833L185.433 18.38H187.513L183.71 24.6265L184.139 23.1055V28H182.027ZM195.599 28.1235C194.685 28.1235 193.887 27.9458 193.207 27.5905C192.531 27.2352 192.004 26.6935 191.627 25.9655C191.255 25.2332 191.068 24.308 191.068 23.19C191.068 22.072 191.255 21.149 191.627 20.421C192.004 19.6887 192.531 19.1448 193.207 18.7895C193.887 18.4342 194.685 18.2565 195.599 18.2565C196.513 18.2565 197.308 18.4363 197.984 18.796C198.665 19.1513 199.191 19.6952 199.564 20.4275C199.941 21.1555 200.129 22.0763 200.129 23.19C200.129 24.3037 199.941 25.2267 199.564 25.959C199.191 26.687 198.665 27.2308 197.984 27.5905C197.304 27.9458 196.509 28.1235 195.599 28.1235ZM195.599 26.4205C196.093 26.4205 196.515 26.3143 196.866 26.102C197.222 25.8853 197.493 25.543 197.679 25.075C197.87 24.607 197.965 23.9938 197.965 23.2355C197.965 22.4468 197.87 21.8142 197.679 21.3375C197.488 20.8565 197.215 20.5077 196.86 20.291C196.509 20.07 196.089 19.9595 195.599 19.9595C195.109 19.9595 194.687 20.0657 194.331 20.278C193.98 20.4903 193.71 20.8305 193.519 21.2985C193.328 21.7665 193.233 22.3818 193.233 23.1445C193.233 23.9375 193.326 24.5745 193.512 25.0555C193.703 25.5322 193.974 25.8788 194.325 26.0955C194.68 26.3122 195.105 26.4205 195.599 26.4205ZM201.543 28V18.38H208.277V20.1025H203.656V28H201.543ZM202.889 24.165V22.4425H207.614V24.165H202.889ZM212.702 28V18.5555C213.153 18.4645 213.617 18.393 214.093 18.341C214.574 18.289 215.081 18.263 215.614 18.263C217.044 18.263 218.119 18.5425 218.838 19.1015C219.562 19.6562 219.924 20.5358 219.924 21.7405C219.924 22.8758 219.573 23.7382 218.871 24.3275C218.173 24.9168 217.131 25.2115 215.744 25.2115C215.58 25.2115 215.424 25.2093 215.276 25.205C215.129 25.1963 214.975 25.1855 214.815 25.1725V28H212.702ZM215.77 23.6255C216.494 23.6255 217.025 23.4803 217.363 23.19C217.701 22.8953 217.87 22.4165 217.87 21.7535C217.87 21.0862 217.701 20.603 217.363 20.304C217.029 20.0007 216.511 19.849 215.809 19.849C215.614 19.849 215.439 19.8555 215.283 19.8685C215.127 19.8772 214.971 19.8967 214.815 19.927V23.567C214.975 23.5843 215.129 23.5995 215.276 23.6125C215.424 23.6212 215.588 23.6255 215.77 23.6255ZM221.259 28V18.38H228.013V20.07H223.346V26.31H228.078V28H221.259ZM222.514 23.9245V22.2345H227.35V23.9245H222.514ZM233.912 28.1235C233.115 28.1235 232.406 28.0303 231.786 27.844C231.167 27.6533 230.64 27.3608 230.207 26.9665C229.778 26.5678 229.453 26.0587 229.232 25.439C229.011 24.8193 228.9 24.0762 228.9 23.2095C228.9 22.1088 229.1 21.1923 229.498 20.46C229.897 19.7233 230.478 19.173 231.24 18.809C232.003 18.4407 232.928 18.2565 234.016 18.2565C234.384 18.2565 234.74 18.276 235.082 18.315C235.424 18.3497 235.758 18.406 236.083 18.484V20.226C235.78 20.1523 235.47 20.096 235.153 20.057C234.841 20.018 234.519 19.9985 234.185 19.9985C233.492 19.9985 232.917 20.1068 232.462 20.3235C232.012 20.5358 231.674 20.876 231.448 21.344C231.223 21.812 231.11 22.4252 231.11 23.1835C231.11 23.9678 231.221 24.594 231.442 25.062C231.667 25.5257 232.001 25.8615 232.443 26.0695C232.889 26.2775 233.446 26.3815 234.113 26.3815C234.443 26.3815 234.77 26.3555 235.095 26.3035C235.42 26.2472 235.749 26.1713 236.083 26.076V27.8115C235.775 27.9068 235.433 27.9827 235.056 28.039C234.683 28.0953 234.302 28.1235 233.912 28.1235ZM237.255 28V18.38H244.009V20.07H239.342V26.31H244.074V28H237.255ZM238.51 23.9245V22.2345H243.346V23.9245H238.51ZM245.406 28V18.38H247.518V26.245H251.938V28H245.406ZM256.146 28V18.38H258.258V26.245H262.678V28H256.146ZM263.611 28V18.38H270.364V20.07H265.697V26.31H270.429V28H263.611ZM264.865 23.9245V22.2345H269.701V23.9245H264.865ZM271.761 28V18.38H273.873V26.245H278.293V28H271.761ZM279.226 28V18.38H285.979V20.07H281.312V26.31H286.044V28H279.226ZM280.48 23.9245V22.2345H285.316V23.9245H280.48Z" fill="white"/>
</g>
<g filter="url(#filter3_d_55_100)">
<path d="M150.312 44.1235C149.848 44.1235 149.382 44.0867 148.914 44.013C148.451 43.9437 148.022 43.844 147.627 43.714V41.998C147.9 42.089 148.191 42.167 148.498 42.232C148.806 42.2927 149.114 42.3403 149.421 42.375C149.733 42.4097 150.028 42.427 150.305 42.427C150.951 42.427 151.408 42.3295 151.677 42.1345C151.946 41.9352 152.08 41.6578 152.08 41.3025C152.08 41.0035 151.98 40.7695 151.781 40.6005C151.586 40.4315 151.22 40.2777 150.682 40.139L149.954 39.9505C149.114 39.7382 148.477 39.4088 148.043 38.9625C147.614 38.5118 147.4 37.9182 147.4 37.1815C147.4 36.2628 147.731 35.5457 148.394 35.03C149.062 34.5143 150.065 34.2565 151.404 34.2565C151.837 34.2565 152.249 34.2825 152.639 34.3345C153.033 34.3822 153.382 34.4493 153.685 34.536V36.252C153.378 36.1567 153.035 36.083 152.658 36.031C152.281 35.979 151.902 35.953 151.521 35.953C151.018 35.953 150.62 36.0007 150.325 36.096C150.03 36.187 149.818 36.317 149.688 36.486C149.562 36.655 149.499 36.85 149.499 37.071C149.499 37.3527 149.586 37.5737 149.759 37.734C149.933 37.8943 150.258 38.0395 150.734 38.1695L151.456 38.358C152.08 38.5097 152.593 38.7112 152.996 38.9625C153.399 39.2095 153.696 39.515 153.887 39.879C154.082 40.2387 154.179 40.6655 154.179 41.1595C154.179 41.7748 154.026 42.3057 153.718 42.752C153.415 43.194 152.975 43.5342 152.398 43.7725C151.822 44.0065 151.127 44.1235 150.312 44.1235ZM157.234 44V36.135H154.198V34.38H162.382V36.135H159.353V44H157.234ZM167.349 44.1235C166.413 44.1235 165.646 43.974 165.048 43.675C164.45 43.376 164.008 42.9232 163.722 42.3165C163.436 41.7055 163.293 40.9385 163.293 40.0155V34.38H165.399V40.2235C165.399 40.9862 165.561 41.5387 165.886 41.881C166.211 42.2233 166.699 42.3945 167.349 42.3945C167.999 42.3945 168.484 42.2233 168.805 41.881C169.13 41.5387 169.292 40.9862 169.292 40.2235V34.38H171.359V40.0155C171.359 40.9385 171.218 41.7055 170.937 42.3165C170.655 42.9232 170.217 43.376 169.624 43.675C169.03 43.974 168.272 44.1235 167.349 44.1235ZM175.683 44.0975C175.414 44.0975 175.132 44.091 174.838 44.078C174.543 44.0693 174.244 44.0542 173.941 44.0325C173.637 44.0108 173.338 43.9805 173.044 43.9415V34.5945C173.343 34.5295 173.661 34.4732 173.999 34.4255C174.342 34.3778 174.69 34.341 175.046 34.315C175.401 34.289 175.75 34.276 176.092 34.276C177.839 34.276 179.156 34.6747 180.044 35.472C180.937 36.265 181.383 37.5043 181.383 39.19C181.383 40.3383 181.173 41.2743 180.753 41.998C180.332 42.7173 179.7 43.2482 178.855 43.5905C178.01 43.9285 176.952 44.0975 175.683 44.0975ZM176.229 42.3815C176.896 42.3815 177.451 42.2775 177.893 42.0695C178.339 41.8572 178.671 41.517 178.887 41.049C179.108 40.5767 179.219 39.9548 179.219 39.1835C179.219 38.4165 179.106 37.799 178.881 37.331C178.66 36.8587 178.328 36.5163 177.886 36.304C177.444 36.0873 176.896 35.979 176.242 35.979C176.077 35.979 175.897 35.9877 175.702 36.005C175.507 36.0223 175.325 36.0462 175.156 36.0765V42.336C175.334 42.3533 175.509 42.3663 175.683 42.375C175.86 42.3793 176.042 42.3815 176.229 42.3815ZM182.794 44V34.38H189.547V36.07H184.88V42.31H189.612V44H182.794ZM184.048 39.9245V38.2345H188.884V39.9245H184.048ZM190.944 44V34.38H193.063L197.62 41.3805H197.256V34.38H199.245V44H197.119L192.569 36.9995H192.933V44H190.944ZM203.229 44V36.135H200.193V34.38H208.377V36.135H205.348V44H203.229ZM217.295 44.1235C216.498 44.1235 215.789 44.0303 215.17 43.844C214.55 43.6533 214.024 43.3608 213.59 42.9665C213.161 42.5678 212.836 42.0587 212.615 41.439C212.394 40.8193 212.284 40.0762 212.284 39.2095C212.284 38.1088 212.483 37.1923 212.882 36.46C213.28 35.7233 213.861 35.173 214.624 34.809C215.386 34.4407 216.312 34.2565 217.399 34.2565C217.768 34.2565 218.123 34.276 218.465 34.315C218.808 34.3497 219.141 34.406 219.466 34.484V36.226C219.163 36.1523 218.853 36.096 218.537 36.057C218.225 36.018 217.902 35.9985 217.568 35.9985C216.875 35.9985 216.301 36.1068 215.846 36.3235C215.395 36.5358 215.057 36.876 214.832 37.344C214.606 37.812 214.494 38.4252 214.494 39.1835C214.494 39.9678 214.604 40.594 214.825 41.062C215.051 41.5257 215.384 41.8615 215.826 42.0695C216.273 42.2775 216.829 42.3815 217.497 42.3815C217.826 42.3815 218.153 42.3555 218.478 42.3035C218.803 42.2472 219.133 42.1713 219.466 42.076V43.8115C219.159 43.9068 218.816 43.9827 218.439 44.039C218.067 44.0953 217.685 44.1235 217.295 44.1235ZM219.865 44L222.972 34.38H226.046L229.153 44H227.073L224.382 35.303H224.603L221.919 44H219.865ZM222.023 41.4325L222.478 39.749H226.534L226.982 41.4325H222.023ZM230.109 44V34.5945C230.399 34.5295 230.709 34.4732 231.039 34.4255C231.368 34.3735 231.708 34.3345 232.059 34.3085C232.41 34.2782 232.763 34.263 233.119 34.263C234.501 34.263 235.541 34.5143 236.239 35.017C236.936 35.5153 237.285 36.2953 237.285 37.357C237.285 38.0417 237.12 38.6158 236.791 39.0795C236.462 39.5388 235.992 39.8855 235.381 40.1195C234.774 40.3535 234.048 40.4705 233.203 40.4705C233.012 40.4705 232.837 40.4683 232.677 40.464C232.516 40.4553 232.352 40.4467 232.183 40.438V44H230.109ZM235.771 44L232.677 39.554H234.939L238.078 44H235.771ZM233.242 38.8975C233.94 38.8975 234.458 38.7762 234.796 38.5335C235.134 38.2908 235.303 37.8987 235.303 37.357C235.303 37.0017 235.231 36.7113 235.088 36.486C234.945 36.2563 234.728 36.0873 234.438 35.979C234.148 35.8707 233.779 35.8165 233.333 35.8165C233.112 35.8165 232.908 35.8252 232.722 35.8425C232.536 35.8598 232.356 35.8858 232.183 35.9205V38.8455C232.308 38.8542 232.425 38.865 232.534 38.878C232.646 38.8867 232.759 38.8932 232.872 38.8975C232.989 38.8975 233.112 38.8975 233.242 38.8975ZM241.711 44.0975C241.442 44.0975 241.161 44.091 240.866 44.078C240.571 44.0693 240.272 44.0542 239.969 44.0325C239.666 44.0108 239.367 43.9805 239.072 43.9415V34.5945C239.371 34.5295 239.69 34.4732 240.028 34.4255C240.37 34.3778 240.719 34.341 241.074 34.315C241.429 34.289 241.778 34.276 242.121 34.276C243.867 34.276 245.184 34.6747 246.073 35.472C246.965 36.265 247.412 37.5043 247.412 39.19C247.412 40.3383 247.201 41.2743 246.781 41.998C246.361 42.7173 245.728 43.2482 244.883 43.5905C244.038 43.9285 242.981 44.0975 241.711 44.0975ZM242.257 42.3815C242.924 42.3815 243.479 42.2775 243.921 42.0695C244.367 41.8572 244.699 41.517 244.916 41.049C245.137 40.5767 245.247 39.9548 245.247 39.1835C245.247 38.4165 245.134 37.799 244.909 37.331C244.688 36.8587 244.357 36.5163 243.915 36.304C243.473 36.0873 242.924 35.979 242.27 35.979C242.105 35.979 241.926 35.9877 241.731 36.005C241.536 36.0223 241.354 36.0462 241.185 36.0765V42.336C241.362 42.3533 241.538 42.3663 241.711 42.375C241.889 42.3793 242.071 42.3815 242.257 42.3815Z" fill="white"/>
</g>
<g filter="url(#filter4_d_55_100)">
<line x1="109" y1="30.5" x2="287" y2="30.5" stroke="white"/>
</g>
<path d="M201.5 92C196.5 95.6667 184.2 99.5 175 85.5C182.2 80.3 195.667 87.6667 201.5 92C201.667 91.8333 202.2 91.4 203 91C185.8 76.2 187.833 68.1667 191 66C195 69.6667 203 79.8 203 91C203.667 90.6667 205 90.1 205 90.5C207.833 83 216.6 69.1 229 73.5C241.4 77.9 218.167 86.6667 205 90.5C205.667 90.8333 206.8 91.8 206 93C215.167 86 226 90.5 237.5 93C246.766 95.0144 215 109 206 93C205.261 93.1479 203.786 93.3483 203.184 93.1121C207.487 95.9071 200.986 104.656 200 116C179 99.5 200 97.3333 203 93L201.5 92Z" fill="url(#paint4_linear_55_100)"/>
<path d="M316.5 80C311.5 83.6667 299.2 87.5 290 73.5C297.2 68.3 310.667 75.6667 316.5 80C316.667 79.8333 317.2 79.4 318 79C300.8 64.2 302.833 56.1667 306 54C310 57.6667 318 67.8 318 79C318.667 78.6667 320 78.1 320 78.5C322.833 71 331.6 57.1 344 61.5C356.4 65.9 333.167 74.6667 320 78.5C320.667 78.8333 321.8 79.8 321 81C330.167 74 341 78.5 352.5 81C361.766 83.0144 330 97 321 81C320.261 81.1479 318.786 81.3483 318.184 81.1121C322.487 83.9071 315.986 92.6562 315 104C294 87.5 315 85.3333 318 81L316.5 80Z" fill="url(#paint5_linear_55_100)"/>
<path d="M270.016 149.478C269.486 155.655 264.276 167.439 247.681 165.151C248.505 156.308 262.914 151.017 270.016 149.478C270 149.242 270.025 148.556 270.25 147.69C247.787 150.899 243.078 144.081 243.531 140.27C248.924 139.672 261.818 140.319 270.25 147.69C270.438 146.969 270.889 145.592 271.19 145.855C267.409 138.786 262.714 123.037 274.188 116.598C285.661 110.158 276.97 133.42 271.19 145.855C271.88 145.573 273.354 145.356 273.731 146.748C274.494 135.239 285.012 130.045 294.463 123.032C302.078 117.382 291.7 150.503 273.731 146.748C273.355 147.402 272.536 148.644 271.962 148.942C276.898 147.542 279.207 158.194 287.098 166.403C260.854 171.353 273.044 154.117 271.756 149.006L270.016 149.478Z" fill="url(#paint6_linear_55_100)"/>
<path d="M364.016 20.4776C363.486 26.6552 358.276 38.4385 341.681 36.1506C342.505 27.3074 356.914 22.0173 364.016 20.4776C364 20.2424 364.025 19.5556 364.25 18.6901C341.787 21.8986 337.078 15.0805 337.531 11.2704C342.924 10.6722 355.818 11.3186 364.25 18.6901C364.438 17.9688 364.889 16.592 365.19 16.8553C361.409 9.78587 356.714 -5.96283 368.188 -12.4025C379.661 -18.8422 370.97 4.41946 365.19 16.8553C365.88 16.5727 367.354 16.3557 367.731 17.7478C368.494 6.2393 379.012 1.04493 388.463 -5.96768C396.078 -11.6181 385.7 21.5026 367.731 17.7478C367.355 18.4018 366.536 19.6437 365.962 19.9417C370.898 18.542 373.207 29.1941 381.098 37.4029C354.854 42.3534 367.044 25.1171 365.756 20.0064L364.016 20.4776Z" fill="url(#paint7_linear_55_100)"/>
<path d="M106.016 144.478C105.486 150.655 100.276 162.439 83.681 160.151C84.5049 151.308 98.9143 146.017 106.016 144.478C106 144.242 106.025 143.556 106.25 142.69C83.7875 145.899 79.0777 139.081 79.5307 135.27C84.9239 134.672 97.8183 135.319 106.25 142.69C106.438 141.969 106.889 140.592 107.19 140.855C103.409 133.786 98.7136 118.037 110.188 111.598C121.661 105.158 112.97 128.42 107.19 140.855C107.88 140.573 109.354 140.356 109.731 141.748C110.494 130.239 121.012 125.045 130.463 118.032C138.078 112.382 127.7 145.503 109.731 141.748C109.355 142.402 108.536 143.644 107.962 143.942C112.898 142.542 115.207 153.194 123.098 161.403C96.8539 166.353 109.044 149.117 107.756 144.006L106.016 144.478Z" fill="url(#paint8_linear_55_100)"/>
<path d="M174.713 160.825C170.65 165.508 159.504 171.971 147.432 160.357C153.301 153.691 168.065 157.892 174.713 160.825C174.839 160.626 175.263 160.085 175.955 159.518C155.904 148.895 156.107 140.611 158.715 137.797C163.428 140.487 173.474 148.596 175.955 159.518C176.531 159.045 177.706 158.197 177.794 158.587C178.896 150.646 184.366 135.149 197.432 136.693C210.499 138.237 189.785 151.933 177.794 158.587C178.518 158.765 179.837 159.456 179.323 160.804C186.712 151.947 198.273 153.936 210.041 153.826C219.523 153.738 191.644 174.413 179.323 160.804C178.635 161.112 177.241 161.634 176.602 161.537C181.417 163.309 177.016 173.281 178.567 184.561C154.434 173.123 174.432 166.358 176.398 161.468L174.713 160.825Z" fill="url(#paint9_linear_55_100)"/>
<path d="M349.601 167.7C345.537 172.383 334.392 178.845 322.319 167.231C328.189 160.565 342.953 164.766 349.601 167.7C349.726 167.5 350.151 166.959 350.842 166.392C330.791 155.77 330.994 147.486 333.603 144.671C338.315 147.361 348.361 155.47 350.842 166.392C351.418 165.919 352.593 165.072 352.682 165.462C353.783 157.52 359.253 142.024 372.32 143.568C385.386 145.112 364.672 158.807 352.682 165.462C353.406 165.639 354.725 166.331 354.211 167.678C361.599 158.821 373.16 160.81 384.928 160.701C394.41 160.612 366.531 181.287 354.211 167.678C353.522 167.986 352.129 168.508 351.489 168.411C356.304 170.184 351.903 180.155 353.454 191.436C329.321 179.997 349.319 173.233 351.285 168.343L349.601 167.7Z" fill="url(#paint10_linear_55_100)"/>
<path d="M381.5 116C376.5 119.667 364.2 123.5 355 109.5C362.2 104.3 375.667 111.667 381.5 116C381.667 115.833 382.2 115.4 383 115C365.8 100.2 367.833 92.1667 371 90C375 93.6667 383 103.8 383 115C383.667 114.667 385 114.1 385 114.5C387.833 107 396.6 93.1 409 97.5C421.4 101.9 398.167 110.667 385 114.5C385.667 114.833 386.8 115.8 386 117C395.167 110 406 114.5 417.5 117C426.766 119.014 395 133 386 117C385.261 117.148 383.786 117.348 383.184 117.112C387.487 119.907 380.986 128.656 380 140C359 123.5 380 121.333 383 117L381.5 116Z" fill="url(#paint11_linear_55_100)"/>
<rect x="-8" y="190" width="411" height="124" fill="url(#paint12_linear_55_100)"/>
<g filter="url(#filter5_d_55_100)">
<rect x="-8" y="187" width="411" height="124" fill="url(#paint13_linear_55_100)"/>
</g>
</g>
</g>
<defs>
<filter id="filter0_d_55_100" x="0" y="0" width="396" height="253" filterUnits="userSpaceOnUse" color-interpolation-filters="sRGB">
<feFlood flood-opacity="0" result="BackgroundImageFix"/>
<feColorMatrix in="SourceAlpha" type="matrix" values="0 0 0 0 0 0 0 0 0 0 0 0 0 0 0 0 0 0 127 0" result="hardAlpha"/>
<feOffset dy="4"/>
<feGaussianBlur stdDeviation="2"/>
<feComposite in2="hardAlpha" operator="out"/>
<feColorMatrix type="matrix" values="0 0 0 0 0 0 0 0 0 0 0 0 0 0 0 0 0 0 0.25 0"/>
<feBlend mode="normal" in2="BackgroundImageFix" result="effect1_dropShadow_55_100"/>
<feBlend mode="normal" in="SourceGraphic" in2="effect1_dropShadow_55_100" result="shape"/>
</filter>
<filter id="filter1_d_55_100" x="15" y="15" width="63.5557" height="63.5555" filterUnits="userSpaceOnUse" color-interpolation-filters="sRGB">
<feFlood flood-opacity="0" result="BackgroundImageFix"/>
<feColorMatrix in="SourceAlpha" type="matrix" values="0 0 0 0 0 0 0 0 0 0 0 0 0 0 0 0 0 0 127 0" result="hardAlpha"/>
<feOffset dy="4"/>
<feGaussianBlur stdDeviation="2"/>
<feComposite in2="hardAlpha" operator="out"/>
<feColorMatrix type="matrix" values="0 0 0 0 0 0 0 0 0 0 0 0 0 0 0 0 0 0 0.25 0"/>
<feBlend mode="normal" in2="BackgroundImageFix" result="effect1_dropShadow_55_100"/>
<feBlend mode="normal" in="SourceGraphic" in2="effect1_dropShadow_55_100" result="shape"/>
</filter>
<filter id="filter2_d_55_100" x="106.314" y="18.2565" width="183.731" height="17.867" filterUnits="userSpaceOnUse" color-interpolation-filters="sRGB">
<feFlood flood-opacity="0" result="BackgroundImageFix"/>
<feColorMatrix in="SourceAlpha" type="matrix" values="0 0 0 0 0 0 0 0 0 0 0 0 0 0 0 0 0 0 127 0" result="hardAlpha"/>
<feOffset dy="4"/>
<feGaussianBlur stdDeviation="2"/>
<feComposite in2="hardAlpha" operator="out"/>
<feColorMatrix type="matrix" values="0 0 0 0 0 0 0 0 0 0 0 0 0 0 0 0 0 0 0.25 0"/>
<feBlend mode="normal" in2="BackgroundImageFix" result="effect1_dropShadow_55_100"/>
<feBlend mode="normal" in="SourceGraphic" in2="effect1_dropShadow_55_100" result="shape"/>
</filter>
<filter id="filter3_d_55_100" x="143.4" y="34.2565" width="108.012" height="17.867" filterUnits="userSpaceOnUse" color-interpolation-filters="sRGB">
<feFlood flood-opacity="0" result="BackgroundImageFix"/>
<feColorMatrix in="SourceAlpha" type="matrix" values="0 0 0 0 0 0 0 0 0 0 0 0 0 0 0 0 0 0 127 0" result="hardAlpha"/>
<feOffset dy="4"/>
<feGaussianBlur stdDeviation="2"/>
<feComposite in2="hardAlpha" operator="out"/>
<feColorMatrix type="matrix" values="0 0 0 0 0 0 0 0 0 0 0 0 0 0 0 0 0 0 0.25 0"/>
<feBlend mode="normal" in2="BackgroundImageFix" result="effect1_dropShadow_55_100"/>
<feBlend mode="normal" in="SourceGraphic" in2="effect1_dropShadow_55_100" result="shape"/>
</filter>
<filter id="filter4_d_55_100" x="105" y="30" width="186" height="9" filterUnits="userSpaceOnUse" color-interpolation-filters="sRGB">
<feFlood flood-opacity="0" result="BackgroundImageFix"/>
<feColorMatrix in="SourceAlpha" type="matrix" values="0 0 0 0 0 0 0 0 0 0 0 0 0 0 0 0 0 0 127 0" result="hardAlpha"/>
<feOffset dy="4"/>
<feGaussianBlur stdDeviation="2"/>
<feComposite in2="hardAlpha" operator="out"/>
<feColorMatrix type="matrix" values="0 0 0 0 0 0 0 0 0 0 0 0 0 0 0 0 0 0 0.25 0"/>
<feBlend mode="normal" in2="BackgroundImageFix" result="effect1_dropShadow_55_100"/>
<feBlend mode="normal" in="SourceGraphic" in2="effect1_dropShadow_55_100" result="shape"/>
</filter>
<filter id="filter5_d_55_100" x="-8" y="177" width="431" height="144" filterUnits="userSpaceOnUse" color-interpolation-filters="sRGB">
<feFlood flood-opacity="0" result="BackgroundImageFix"/>
<feColorMatrix in="SourceAlpha" type="matrix" values="0 0 0 0 0 0 0 0 0 0 0 0 0 0 0 0 0 0 127 0" result="hardAlpha"/>
<feOffset dx="10"/>
<feGaussianBlur stdDeviation="5"/>
<feComposite in2="hardAlpha" operator="out"/>
<feColorMatrix type="matrix" values="0 0 0 0 0 0 0 0 0 0 0 0 0 0 0 0 0 0 0.25 0"/>
<feBlend mode="normal" in2="BackgroundImageFix" result="effect1_dropShadow_55_100"/>
<feBlend mode="normal" in="SourceGraphic" in2="effect1_dropShadow_55_100" result="shape"/>
</filter>
<linearGradient id="paint0_linear_55_100" x1="99.3427" y1="35.4811" x2="279.781" y2="224.995" gradientUnits="userSpaceOnUse">
<stop stop-color="#FF5C00"/>
<stop offset="1" stop-color="#FFE600"/>
</linearGradient>
<linearGradient id="paint1_linear_55_100" x1="32.8889" y1="18.6111" x2="46.7778" y2="64.7222" gradientUnits="userSpaceOnUse">
<stop stop-color="#A103CB"/>
<stop offset="1" stop-color="#F848BB"/>
</linearGradient>
<linearGradient id="paint2_linear_55_100" x1="47.3334" y1="18.6112" x2="46.7778" y2="64.4445" gradientUnits="userSpaceOnUse">
<stop stop-color="#A103CB"/>
<stop offset="1" stop-color="#FB4BBB"/>
</linearGradient>
<linearGradient id="paint3_linear_55_100" x1="62.0557" y1="19.1667" x2="46.7779" y2="64.1667" gradientUnits="userSpaceOnUse">
<stop stop-color="#A103CB"/>
<stop offset="1" stop-color="#FC4BBB"/>
</linearGradient>
<linearGradient id="paint4_linear_55_100" x1="207.088" y1="66" x2="207.088" y2="116" gradientUnits="userSpaceOnUse">
<stop stop-color="#61FF00"/>
<stop offset="1" stop-color="#8CC867"/>
</linearGradient>
<linearGradient id="paint5_linear_55_100" x1="322.088" y1="54" x2="322.088" y2="104" gradientUnits="userSpaceOnUse">
<stop stop-color="#61FF00"/>
<stop offset="1" stop-color="#8CC867"/>
</linearGradient>
<linearGradient id="paint6_linear_55_100" x1="254.119" y1="128.158" x2="291.763" y2="161.067" gradientUnits="userSpaceOnUse">
<stop stop-color="#61FF00"/>
<stop offset="1" stop-color="#8CC867"/>
</linearGradient>
<linearGradient id="paint7_linear_55_100" x1="348.119" y1="-0.841837" x2="385.763" y2="32.0665" gradientUnits="userSpaceOnUse">
<stop stop-color="#61FF00"/>
<stop offset="1" stop-color="#8CC867"/>
</linearGradient>
<linearGradient id="paint8_linear_55_100" x1="90.1193" y1="123.158" x2="127.763" y2="156.067" gradientUnits="userSpaceOnUse">
<stop stop-color="#61FF00"/>
<stop offset="1" stop-color="#8CC867"/>
</linearGradient>
<linearGradient id="paint9_linear_55_100" x1="174.403" y1="134.233" x2="185.479" y2="182.991" gradientUnits="userSpaceOnUse">
<stop stop-color="#61FF00"/>
<stop offset="1" stop-color="#8CC867"/>
</linearGradient>
<linearGradient id="paint10_linear_55_100" x1="349.291" y1="141.108" x2="360.366" y2="189.866" gradientUnits="userSpaceOnUse">
<stop stop-color="#61FF00"/>
<stop offset="1" stop-color="#8CC867"/>
</linearGradient>
<linearGradient id="paint11_linear_55_100" x1="387.088" y1="90" x2="387.088" y2="140" gradientUnits="userSpaceOnUse">
<stop stop-color="#61FF00"/>
<stop offset="1" stop-color="#8CC867"/>
</linearGradient>
<linearGradient id="paint12_linear_55_100" x1="107.5" y1="340" x2="64.5" y2="140" gradientUnits="userSpaceOnUse">
<stop stop-color="#FF5C01"/>
<stop offset="1" stop-color="#FFDC01"/>
</linearGradient>
<linearGradient id="paint13_linear_55_100" x1="107.5" y1="337" x2="64.5" y2="137" gradientUnits="userSpaceOnUse">
<stop stop-color="#FF5C01"/>
<stop offset="1" stop-color="#FFDC01"/>
</linearGradient>
<clipPath id="clip0_55_100">
<rect x="4" width="388" height="245" rx="10" fill="white"/>
</clipPath>
</defs>
</svg>
