<svg width="145" height="140" viewBox="0 0 145 140" fill="none" xmlns="http://www.w3.org/2000/svg">
<g clip-path="url(#clip0_31_27)">
<g filter="url(#filter0_d_31_27)">
<path d="M22 5L47 30L72 55L122 5V55V55C122 82.6142 99.6142 105 72 105V105C44.3858 105 22 82.6142 22 55V5Z" fill="#82025E"/>
</g>
<path d="M22.0003 5C49.6144 5 72 27.3857 72 55C72 55 49.6141 55 22 55C22 27.3858 22.0003 5 22.0003 5Z" fill="url(#paint0_linear_31_27)"/>
<path d="M101.5 55C101.5 82.6141 72 45 72 94.4997C72 94.4997 51.5 82.6138 51.5 54.9997C79.1142 54.9997 101.5 55 101.5 55Z" fill="url(#paint1_linear_31_27)"/>
<path d="M72 54.9997C72 27.3856 94.3857 5 122 5C122 5 122 27.3859 122 55C94.3858 55 72 54.9997 72 54.9997Z" fill="url(#paint2_linear_31_27)"/>
</g>
<path d="M9.23466 135.228C7.50666 135.228 6.09066 134.952 4.98666 134.4C3.88266 133.848 3.06666 133.012 2.53866 131.892C2.01066 130.764 1.74666 129.348 1.74666 127.644V117.24H5.63466V128.028C5.63466 129.436 5.93466 130.456 6.53466 131.088C7.13466 131.72 8.03466 132.036 9.23466 132.036C10.4347 132.036 11.3307 131.72 11.9227 131.088C12.5227 130.456 12.8227 129.436 12.8227 128.028V117.24H16.6387V127.644C16.6387 129.348 16.3787 130.764 15.8587 131.892C15.3387 133.012 14.5307 133.848 13.4347 134.4C12.3387 134.952 10.9387 135.228 9.23466 135.228ZM19.7483 135V117.24H23.6603L32.0723 130.164H31.4003V117.24H35.0723V135H31.1483L22.7483 122.076H23.4203V135H19.7483ZM38.264 135V117.24H42.164V135H38.264ZM49.4815 135L43.7815 117.24H47.8615L52.8775 133.404H52.0375L57.1375 117.24H60.9295L55.2415 135H49.4815ZM62.5452 135V117.24H75.0132V120.36H66.3972V131.88H75.1332V135H62.5452ZM64.8612 127.476V124.356H73.7892V127.476H64.8612ZM77.5921 135V117.636C78.1281 117.516 78.7001 117.412 79.3081 117.324C79.9161 117.228 80.5441 117.156 81.1921 117.108C81.8401 117.052 82.4921 117.024 83.1481 117.024C85.7001 117.024 87.6201 117.488 88.9081 118.416C90.1961 119.336 90.8401 120.776 90.8401 122.736C90.8401 124 90.5361 125.06 89.9281 125.916C89.3201 126.764 88.4521 127.404 87.3241 127.836C86.2041 128.268 84.8641 128.484 83.3041 128.484C82.9521 128.484 82.6281 128.48 82.3321 128.472C82.0361 128.456 81.7321 128.44 81.4201 128.424V135H77.5921ZM88.0441 135L82.3321 126.792H86.5081L92.3041 135H88.0441ZM83.3761 125.58C84.6641 125.58 85.6201 125.356 86.2441 124.908C86.8681 124.46 87.1801 123.736 87.1801 122.736C87.1801 122.08 87.0481 121.544 86.7841 121.128C86.5201 120.704 86.1201 120.392 85.5841 120.192C85.0481 119.992 84.3681 119.892 83.5441 119.892C83.1361 119.892 82.7601 119.908 82.4161 119.94C82.0721 119.972 81.7401 120.02 81.4201 120.084V125.484C81.6521 125.5 81.8681 125.52 82.0681 125.544C82.2761 125.56 82.4841 125.572 82.6921 125.58C82.9081 125.58 83.1361 125.58 83.3761 125.58ZM98.2508 135.228C97.3948 135.228 96.5348 135.16 95.6708 135.024C94.8148 134.896 94.0228 134.712 93.2948 134.472V131.304C93.7988 131.472 94.3348 131.616 94.9028 131.736C95.4708 131.848 96.0388 131.936 96.6068 132C97.1828 132.064 97.7268 132.096 98.2388 132.096C99.4308 132.096 100.275 131.916 100.771 131.556C101.267 131.188 101.515 130.676 101.515 130.02C101.515 129.468 101.331 129.036 100.963 128.724C100.603 128.412 99.9268 128.128 98.9348 127.872L97.5908 127.524C96.0388 127.132 94.8628 126.524 94.0628 125.7C93.2708 124.868 92.8748 123.772 92.8748 122.412C92.8748 120.716 93.4868 119.392 94.7108 118.44C95.9428 117.488 97.7948 117.012 100.267 117.012C101.067 117.012 101.827 117.06 102.547 117.156C103.275 117.244 103.919 117.368 104.479 117.528V120.696C103.911 120.52 103.279 120.384 102.583 120.288C101.887 120.192 101.187 120.144 100.483 120.144C99.5548 120.144 98.8188 120.232 98.2748 120.408C97.7308 120.576 97.3388 120.816 97.0988 121.128C96.8668 121.44 96.7508 121.8 96.7508 122.208C96.7508 122.728 96.9108 123.136 97.2308 123.432C97.5508 123.728 98.1508 123.996 99.0308 124.236L100.363 124.584C101.515 124.864 102.463 125.236 103.207 125.7C103.951 126.156 104.499 126.72 104.851 127.392C105.211 128.056 105.391 128.844 105.391 129.756C105.391 130.892 105.107 131.872 104.539 132.696C103.979 133.512 103.167 134.14 102.103 134.58C101.039 135.012 99.7548 135.228 98.2508 135.228ZM107.639 135V117.24H111.539V135H107.639ZM118.905 135V120.48H113.301V117.24H128.409V120.48H122.817V135H118.905ZM134.139 135V125.904L134.931 128.772L127.731 117.24H131.871L136.731 125.088H135.627L140.427 117.24H144.267L137.247 128.772L138.039 125.964V135H134.139Z" fill="white"/>
<defs>
<filter id="filter0_d_31_27" x="18" y="5" width="108" height="108" filterUnits="userSpaceOnUse" color-interpolation-filters="sRGB">
<feFlood flood-opacity="0" result="BackgroundImageFix"/>
<feColorMatrix in="SourceAlpha" type="matrix" values="0 0 0 0 0 0 0 0 0 0 0 0 0 0 0 0 0 0 127 0" result="hardAlpha"/>
<feOffset dy="4"/>
<feGaussianBlur stdDeviation="2"/>
<feComposite in2="hardAlpha" operator="out"/>
<feColorMatrix type="matrix" values="0 0 0 0 0 0 0 0 0 0 0 0 0 0 0 0 0 0 0.25 0"/>
<feBlend mode="normal" in2="BackgroundImageFix" result="effect1_dropShadow_31_27"/>
<feBlend mode="normal" in="SourceGraphic" in2="effect1_dropShadow_31_27" result="shape"/>
</filter>
<linearGradient id="paint0_linear_31_27" x1="47" y1="11.5" x2="72" y2="94.5" gradientUnits="userSpaceOnUse">
<stop stop-color="#A103CB"/>
<stop offset="1" stop-color="#F848BB"/>
</linearGradient>
<linearGradient id="paint1_linear_31_27" x1="73" y1="11.5" x2="72" y2="94" gradientUnits="userSpaceOnUse">
<stop stop-color="#A103CB"/>
<stop offset="1" stop-color="#FB4BBB"/>
</linearGradient>
<linearGradient id="paint2_linear_31_27" x1="99.5" y1="12.5" x2="72" y2="93.5" gradientUnits="userSpaceOnUse">
<stop stop-color="#A103CB"/>
<stop offset="1" stop-color="#FC4BBB"/>
</linearGradient>
<clipPath id="clip0_31_27">
<rect width="110" height="110" fill="white" transform="translate(17)"/>
</clipPath>
</defs>
</svg>
