<svg width="110" height="110" viewBox="0 0 110 110" fill="none" xmlns="http://www.w3.org/2000/svg">
<g clip-path="url(#clip0_30_21)">
<g filter="url(#filter0_d_30_21)">
<path d="M5 5L30 30L55 55L105 5V55V55C105 82.6142 82.6142 105 55 105V105C27.3858 105 5 82.6142 5 55V5Z" fill="#82025E"/>
</g>
<path d="M5.00029 5C32.6144 5 55 27.3857 55 55C55 55 32.6141 55 5 55C5 27.3858 5.00029 5 5.00029 5Z" fill="url(#paint0_linear_30_21)"/>
<path d="M84.5 55C84.5 82.6141 55 45 55 94.4997C55 94.4997 34.5 82.6138 34.5 54.9997C62.1142 54.9997 84.5 55 84.5 55Z" fill="url(#paint1_linear_30_21)"/>
<path d="M55 54.9997C55 27.3856 77.3857 5 105 5C105 5 105 27.3859 105 55C77.3858 55 55 54.9997 55 54.9997Z" fill="url(#paint2_linear_30_21)"/>
</g>
<defs>
<filter id="filter0_d_30_21" x="1" y="5" width="108" height="108" filterUnits="userSpaceOnUse" color-interpolation-filters="sRGB">
<feFlood flood-opacity="0" result="BackgroundImageFix"/>
<feColorMatrix in="SourceAlpha" type="matrix" values="0 0 0 0 0 0 0 0 0 0 0 0 0 0 0 0 0 0 127 0" result="hardAlpha"/>
<feOffset dy="4"/>
<feGaussianBlur stdDeviation="2"/>
<feComposite in2="hardAlpha" operator="out"/>
<feColorMatrix type="matrix" values="0 0 0 0 0 0 0 0 0 0 0 0 0 0 0 0 0 0 0.25 0"/>
<feBlend mode="normal" in2="BackgroundImageFix" result="effect1_dropShadow_30_21"/>
<feBlend mode="normal" in="SourceGraphic" in2="effect1_dropShadow_30_21" result="shape"/>
</filter>
<linearGradient id="paint0_linear_30_21" x1="30" y1="11.5" x2="55" y2="94.5" gradientUnits="userSpaceOnUse">
<stop stop-color="#A103CB"/>
<stop offset="1" stop-color="#F848BB"/>
</linearGradient>
<linearGradient id="paint1_linear_30_21" x1="56" y1="11.5" x2="55" y2="94" gradientUnits="userSpaceOnUse">
<stop stop-color="#A103CB"/>
<stop offset="1" stop-color="#FB4BBB"/>
</linearGradient>
<linearGradient id="paint2_linear_30_21" x1="82.5" y1="12.5" x2="55" y2="93.5" gradientUnits="userSpaceOnUse">
<stop stop-color="#A103CB"/>
<stop offset="1" stop-color="#FC4BBB"/>
</linearGradient>
<clipPath id="clip0_30_21">
<rect width="110" height="110" fill="white"/>
</clipPath>
</defs>
</svg>
